<svg width="24" height="24" viewBox="0 0 24 24" fill="none" xmlns="http://www.w3.org/2000/svg">
<path d="M18.2477 7.08877C17.0672 6.57346 15.8184 6.20731 14.5342 6C14.3742 6.26982 14.1873 6.63272 14.0585 6.92143C12.6739 6.72718 11.302 6.72718 9.94286 6.92143C9.81405 6.63278 9.62294 6.26982 9.4615 6C8.17604 6.20741 6.92615 6.57449 5.74513 7.09146C3.39501 10.4049 2.75791 13.6359 3.07642 16.8212C4.63518 17.9072 6.14578 18.567 7.63092 18.9987C8.00001 18.5251 8.32628 18.0238 8.60636 17.4998C8.07313 17.3104 7.55908 17.077 7.07031 16.8023C7.19894 16.7134 7.32453 16.6207 7.44691 16.5244C10.4086 17.8168 13.6267 17.8168 16.5531 16.5244C16.676 16.62 16.8015 16.7127 16.9296 16.8023C16.4401 17.0777 15.925 17.3116 15.3907 17.5012C15.6724 18.0273 15.9981 18.5291 16.3662 19C17.8527 18.5683 19.3647 17.9086 20.9235 16.8212C21.2973 13.1287 20.2851 9.92724 18.2477 7.08871V7.08877ZM9.00988 14.8623C8.12078 14.8623 7.39164 14.0879 7.39164 13.1449C7.39164 12.2019 8.10524 11.4262 9.00988 11.4262C9.91459 11.4262 10.6437 12.2005 10.6281 13.1449C10.6295 14.0879 9.91459 14.8623 9.00988 14.8623ZM14.99 14.8623C14.1009 14.8623 13.3719 14.0879 13.3719 13.1449C13.3719 12.2019 14.0854 11.4262 14.99 11.4262C15.8947 11.4262 16.6238 12.2005 16.6083 13.1449C16.6083 14.0879 15.8947 14.8623 14.99 14.8623Z" fill="#5865F2"/>
</svg>
